<?xml version="1.0" standalone="no"?>
<!DOCTYPE svg PUBLIC "-//W3C//DTD SVG 20010904//EN"
 "http://www.w3.org/TR/2001/REC-SVG-20010904/DTD/svg10.dtd">
<svg version="1.0" xmlns="http://www.w3.org/2000/svg"
 width="750.000000pt" height="549.000000pt" viewBox="0 0 750.000000 549.000000"
 preserveAspectRatio="xMidYMid meet">
<metadata>
Created by potrace 1.16, written by Peter Selinger 2001-2019
</metadata>
<g transform="translate(0.000000,549.000000) scale(0.100000,-0.100000)"
fill="#ffffff" stroke="none">
<path d="M4216 5433 c-16 -3 -43 -15 -60 -27 -17 -12 -44 -28 -60 -36 -16 -8
-35 -26 -44 -40 -8 -14 -23 -37 -34 -53 -35 -50 -39 -119 -30 -458 l9 -324 36
-65 c43 -77 118 -145 179 -161 30 -9 238 -14 683 -19 532 -6 651 -9 705 -22
36 -9 112 -21 170 -28 88 -9 118 -18 185 -50 44 -21 105 -45 136 -54 31 -9 62
-23 70 -32 7 -8 35 -27 63 -41 28 -14 70 -42 94 -62 24 -20 60 -50 80 -67 21
-17 52 -41 70 -53 32 -22 81 -81 150 -179 19 -26 42 -56 52 -67 10 -11 28 -40
40 -65 13 -25 33 -58 46 -73 13 -15 30 -51 39 -79 8 -28 30 -83 49 -122 34
-69 36 -78 52 -279 15 -177 15 -228 5 -340 -26 -282 -30 -306 -55 -357 -14
-27 -33 -78 -44 -113 -10 -34 -35 -87 -55 -116 -21 -29 -37 -59 -37 -67 0 -7
-13 -28 -28 -46 -16 -18 -39 -51 -52 -73 -55 -92 -149 -183 -269 -260 -25 -16
-62 -42 -82 -58 -20 -15 -57 -33 -83 -41 -25 -8 -68 -28 -94 -45 -41 -26 -65
-32 -170 -45 -67 -9 -148 -23 -179 -32 -47 -14 -91 -16 -262 -12 -128 3 -217
10 -236 17 -16 7 -78 18 -137 26 -89 11 -118 19 -170 48 -35 19 -80 40 -101
47 -21 6 -50 23 -66 36 -16 13 -46 31 -68 40 -21 9 -57 33 -80 53 -23 20 -63
54 -89 76 -95 80 -136 121 -161 163 -14 23 -34 47 -44 53 -10 5 -29 29 -40 52
-12 23 -32 56 -45 72 -12 17 -31 53 -41 80 -11 28 -31 67 -46 88 -14 21 -31
64 -36 95 -6 31 -21 91 -33 132 -56 196 -57 201 -58 365 -1 211 -14 342 -45
437 -14 43 -32 108 -41 144 -8 37 -26 81 -39 98 -13 17 -31 58 -40 91 -10 33
-30 78 -46 99 -16 22 -36 61 -45 88 -8 26 -24 52 -33 58 -10 5 -32 36 -50 70
-18 33 -42 71 -54 84 -12 13 -44 52 -72 85 -55 68 -150 165 -222 226 -25 22
-64 57 -86 78 -22 20 -58 43 -80 49 -21 6 -53 25 -70 41 -18 17 -48 37 -67 46
-19 9 -56 29 -82 45 -26 15 -75 36 -109 46 -34 11 -78 30 -98 44 -25 17 -65
29 -131 40 -52 8 -147 29 -210 46 -110 29 -122 30 -325 30 -186 0 -223 -3
-317 -24 -59 -13 -112 -27 -118 -31 -6 -4 -54 -13 -107 -21 -73 -11 -108 -22
-143 -44 -25 -15 -71 -35 -102 -43 -32 -8 -79 -29 -104 -45 -25 -17 -58 -33
-73 -37 -15 -3 -44 -21 -64 -40 -20 -19 -59 -44 -87 -56 -28 -12 -55 -30 -61
-40 -5 -10 -23 -26 -40 -35 -17 -8 -77 -64 -134 -122 -57 -59 -114 -117 -127
-130 -13 -12 -29 -28 -35 -35 -48 -47 -95 -110 -112 -150 -11 -25 -30 -56 -42
-68 -12 -12 -37 -52 -55 -90 -18 -37 -37 -70 -43 -73 -6 -4 -20 -39 -32 -78
-11 -39 -32 -88 -45 -108 -14 -20 -29 -61 -34 -91 -12 -73 -46 -205 -66 -260
-13 -34 -18 -94 -21 -274 -6 -263 3 -357 47 -500 16 -55 33 -125 36 -155 4
-36 17 -74 39 -110 18 -30 42 -87 54 -127 12 -40 26 -75 31 -78 6 -4 22 -30
37 -58 14 -29 36 -66 49 -82 13 -17 31 -48 41 -70 20 -45 27 -52 268 -297 103
-105 192 -186 217 -199 23 -12 58 -34 78 -50 19 -15 53 -35 75 -45 22 -9 54
-26 70 -38 17 -13 56 -33 88 -44 31 -12 80 -33 108 -47 27 -14 76 -30 107 -36
31 -6 98 -26 147 -46 l90 -36 535 -9 c614 -10 742 -16 764 -38 24 -23 37 -115
30 -200 -4 -42 -3 -115 0 -162 7 -74 12 -92 43 -139 19 -30 60 -73 91 -96 55
-43 56 -43 140 -43 l84 0 58 51 c54 47 60 56 85 137 26 82 28 101 34 347 3
143 3 283 0 310 -9 69 -64 207 -90 225 -11 8 -38 29 -58 47 -21 18 -51 37 -67
44 -20 8 -173 11 -524 10 -608 0 -791 10 -1010 59 -47 11 -117 24 -156 29 -50
6 -93 21 -151 50 -44 23 -84 41 -89 41 -5 0 -28 15 -51 34 -23 18 -57 39 -75
46 -18 8 -52 31 -75 52 -24 21 -48 38 -55 38 -14 0 -204 194 -235 241 -13 19
-31 47 -40 63 -10 16 -37 57 -60 92 -23 35 -49 88 -57 118 -8 31 -26 70 -40
87 -30 35 -29 32 -56 199 -11 69 -24 141 -30 160 -17 59 -12 251 9 348 11 48
24 123 31 167 12 89 34 157 55 175 8 7 24 42 35 79 12 40 30 77 45 91 14 13
36 48 50 78 24 52 42 77 123 170 75 87 140 146 200 182 16 10 50 34 76 54 26
20 54 36 62 36 8 0 31 16 52 35 24 21 56 38 87 45 26 6 76 26 110 45 54 31 78
37 211 54 82 11 170 25 196 31 57 15 123 10 358 -24 213 -30 211 -30 248 -61
15 -13 54 -30 85 -38 32 -9 72 -26 90 -40 18 -13 52 -34 77 -47 25 -12 62 -38
83 -56 20 -19 41 -34 47 -34 16 0 195 -182 223 -227 15 -24 32 -43 38 -43 5 0
23 -30 40 -66 16 -37 40 -79 53 -95 13 -16 30 -45 36 -66 7 -21 27 -65 45 -98
18 -33 36 -82 40 -110 4 -27 16 -76 27 -110 20 -59 32 -182 57 -575 11 -165
17 -195 49 -250 11 -19 28 -73 37 -120 10 -51 26 -99 41 -120 13 -20 31 -60
40 -90 8 -30 29 -72 45 -92 17 -21 37 -57 45 -80 8 -24 28 -56 43 -73 16 -16
36 -45 45 -63 10 -18 24 -36 32 -39 8 -3 28 -24 43 -47 27 -39 241 -254 326
-329 22 -19 54 -42 72 -51 18 -9 44 -27 58 -41 15 -13 48 -32 73 -41 26 -10
65 -30 87 -46 22 -15 65 -36 95 -47 30 -10 78 -31 105 -45 28 -15 78 -31 112
-36 35 -6 98 -24 140 -40 110 -43 252 -54 583 -47 266 6 307 11 390 49 25 11
85 27 135 35 60 10 106 24 140 43 27 15 69 33 91 39 23 6 58 25 79 41 21 17
56 35 79 42 23 6 59 29 81 50 23 21 45 38 51 38 22 0 161 115 217 179 32 36
73 80 91 96 18 17 43 48 56 70 13 22 39 57 57 78 18 20 33 44 33 52 0 8 14 30
31 49 16 19 41 62 54 95 13 34 33 72 44 86 11 14 27 58 36 98 9 40 29 95 45
124 20 35 34 81 44 145 8 51 27 134 41 183 25 86 26 100 27 340 0 265 -1 268
-37 385 -13 41 -28 107 -33 145 -7 49 -19 85 -40 120 -17 28 -38 81 -47 118
-8 38 -26 83 -39 100 -13 18 -33 54 -45 82 -12 27 -30 59 -40 70 -10 11 -27
36 -36 55 -10 19 -33 52 -51 73 -19 20 -34 42 -34 47 0 31 -272 310 -359 370
-31 21 -63 45 -71 55 -7 9 -30 23 -49 31 -20 8 -47 26 -61 39 -14 13 -45 33
-70 44 -25 11 -60 31 -79 45 -18 14 -58 30 -87 36 -29 6 -70 23 -91 37 -45 31
-105 53 -143 53 -16 0 -93 17 -172 37 l-143 38 -567 5 c-556 5 -567 5 -595 26
l-28 21 -6 189 c-5 179 -7 193 -36 269 l-30 80 -89 47 c-49 26 -96 47 -104 46
-8 -1 -28 -3 -44 -5z"/>
<path d="M1867 3730 c-32 -5 -82 -23 -110 -39 -29 -16 -70 -34 -92 -41 -22 -7
-57 -28 -78 -46 -20 -19 -41 -34 -46 -34 -12 0 -176 -165 -209 -210 -14 -19
-36 -46 -48 -60 -12 -14 -29 -49 -38 -79 -9 -30 -27 -68 -40 -85 -13 -18 -29
-50 -35 -71 -17 -61 -24 -326 -13 -453 9 -96 14 -119 36 -151 14 -20 33 -59
42 -85 35 -102 168 -274 261 -337 27 -18 63 -45 81 -61 18 -15 37 -28 43 -28
5 0 32 -15 59 -34 33 -23 70 -37 117 -46 37 -7 88 -21 113 -33 35 -15 73 -21
172 -25 119 -4 132 -3 230 27 57 16 117 33 133 37 17 4 44 17 60 29 17 12 53
34 80 48 28 13 59 35 70 47 11 12 36 31 55 41 19 11 56 43 82 72 26 29 65 72
87 96 22 24 47 65 56 91 9 27 23 54 31 61 22 18 40 58 49 104 3 22 18 78 31
124 32 110 34 285 4 394 -48 177 -59 210 -78 230 -11 12 -31 47 -46 77 -29 64
-185 231 -256 276 -25 16 -60 41 -78 56 -18 15 -38 28 -45 28 -7 0 -50 19 -97
43 l-85 42 -220 2 c-121 1 -246 -2 -278 -7z"/>
<path d="M5254 3729 c-28 -5 -84 -24 -125 -44 -40 -19 -79 -35 -86 -35 -7 0
-29 -15 -49 -32 -20 -18 -52 -42 -70 -53 -60 -37 -151 -120 -170 -155 -10 -19
-31 -48 -46 -65 -14 -17 -38 -55 -52 -85 -14 -30 -35 -69 -46 -86 -11 -18 -27
-67 -35 -110 -7 -44 -26 -115 -40 -159 -31 -93 -29 -168 6 -258 11 -29 27 -92
35 -140 10 -61 22 -99 38 -120 13 -18 33 -54 45 -81 24 -56 57 -97 158 -199
97 -97 142 -133 195 -157 24 -11 56 -29 70 -40 14 -11 82 -37 150 -57 107 -32
139 -38 243 -41 115 -3 126 -1 259 37 87 25 155 51 180 68 23 16 53 34 67 40
15 6 42 24 60 40 19 16 53 41 76 56 23 15 49 37 58 50 8 13 26 30 39 37 14 7
30 26 37 43 7 17 27 49 44 71 17 23 53 86 79 141 42 87 50 112 57 190 5 50 14
111 20 137 8 37 8 68 -4 145 -9 54 -18 126 -21 160 -4 43 -15 80 -35 115 -16
29 -34 71 -41 93 -7 22 -27 56 -45 75 -18 19 -40 49 -49 67 -14 27 -83 92
-241 226 -22 19 -58 40 -80 47 -22 7 -63 25 -92 41 -28 15 -80 33 -115 39 -74
12 -401 11 -474 -1z"/>
</g>
</svg>
